<svg width="40" height="41" viewBox="0 0 40 41" fill="none" xmlns="http://www.w3.org/2000/svg">
<g clip-path="url(#clip0_12_64)">
<path d="M20.7234 0.86734H18.6185C8.34992 0.86734 0.0255547 9.6629 0.0255547 20.5128C0.0255547 31.3626 8.34992 40.1582 18.6185 40.1582H20.7234C30.992 40.1582 39.3164 31.3626 39.3164 20.5128C39.3164 9.6629 30.992 0.86734 20.7234 0.86734Z" fill="#FF6C2C"/>
<path d="M21.1327 21.3051C18.5016 23.1894 15.1689 40.0669 15.1689 40.0669L18.2093 40.1582L19.4956 32.0035C19.4956 32.0035 25.2547 32.5904 27.5642 31.293C30.8652 29.4387 30.5754 23.9723 28.6167 21.841C26.658 19.7097 23.7638 19.4209 21.1327 21.3051Z" fill="white"/>
<path d="M22.1851 9.33094C22.1851 9.33094 29.2664 8.5547 30.6338 12.1418C31.4816 14.3659 30.6338 16.3736 29.2306 17.9181C26.93 20.4503 22.6529 19.7714 21.8051 17.5783C20.5953 14.4487 22.1851 9.33094 22.1851 9.33094Z" fill="white"/>
<path d="M21.1035 0.898224L20.1387 9.33093H13.3564L11.6023 19.6479C11.6023 19.6479 14.935 19.6479 17.5953 18.6285C20.2557 17.6092 22.5067 0.898224 22.5067 0.898224H21.1035Z" fill="white"/>
<path d="M12.1305 21.3214L13.6949 21.6676L14.6196 29.1342L18.302 22.687L19.8664 23.0332L14.7487 31.7917L13.4922 31.5137L12.1305 21.3214ZM11.2867 21.1348L12.845 21.4795L11.7843 28.3234L11.2503 31.0176L9.4087 30.6101L11.2867 21.1348ZM19.152 22.8751L20.7164 23.2212L18.8384 32.6966L16.9906 32.2878L17.5246 29.5935L19.152 22.8751Z" fill="white"/>
</g>
<defs>
<clipPath id="clip0_12_64">
<rect width="39.2909" height="39.2909" fill="white" transform="translate(0.0255547 0.86734)"/>
</clipPath>
</defs>
</svg>
